<svg width="139" height="20" viewBox="0 0 139 20" fill="none" xmlns="http://www.w3.org/2000/svg">
<path d="M9.04533 0.0603303C11.6243 0.0603303 13.6154 0.676628 15.0187 1.90922C16.4409 3.14181 17.152 4.87692 17.152 7.11455C17.152 9.50388 16.4409 11.3622 15.0187 12.6897C13.6154 13.9981 11.6243 14.6523 9.04533 14.6523H5.91645V19.9999H0V0.0603303H9.04533ZM8.76089 10.0728C9.65215 10.0728 10.3348 9.83573 10.8089 9.36166C11.3019 8.88758 11.5484 8.19543 11.5484 7.28521C11.5484 6.43188 11.3019 5.77766 10.8089 5.32255C10.3348 4.84848 9.65215 4.61144 8.76089 4.61144H5.91645V10.0728H8.76089Z" fill="black"/>
<path d="M17.8611 0.0603303H23.7776V19.9999H17.8611V0.0603303Z" fill="black"/>
<path d="M48.6389 0.0603303H64.9376V4.61144H54.5553V7.74032H63.9705V12.2914H54.5553V15.4488H65.222V19.9999H48.6389V0.0603303Z" fill="black"/>
<path d="M66.5 0.0603303H72.4165V15.0505H80.7791V19.9999H66.5V0.0603303Z" fill="black"/>
<path d="M77.0698 0.0603303H83.3845L86.9702 13.8888L90.524 0.0603303H96.2982L99.8762 13.8888L103.409 0.0603303H109.468L102.727 19.9999H96.6396L93.3061 7.111L89.8129 19.9999H83.7542L77.0698 0.0603303Z" fill="black"/>
<path d="M110.167 7.61589H116.083V19.9999H110.167V7.61589Z" fill="black"/>
<path fill-rule="evenodd" clip-rule="evenodd" d="M38.9805 2.77778C39.7158 2.04162 40.1294 1.04249 40.1294 4.66255e-07H45.4628C45.4628 2.45488 44.4888 4.80986 42.754 6.54671C41.7659 7.53602 40.5771 8.2786 39.2832 8.73457C39.7562 8.86382 40.2216 9.02305 40.6764 9.21169C42.0921 9.79881 43.3783 10.6593 44.4615 11.7438C45.5447 12.8283 46.4037 14.1157 46.9898 15.5322C47.5758 16.9488 47.8774 18.4669 47.8774 20H42.5441C42.5441 19.1664 42.3801 18.341 42.0615 17.5711C41.743 16.8011 41.2762 16.1017 40.6879 15.5127C40.0997 14.9238 39.4015 14.4567 38.6333 14.1382C37.8652 13.8196 37.042 13.6557 36.2107 13.6557C35.3795 13.6557 34.5563 13.8196 33.7881 14.1382C33.02 14.4567 32.3218 14.9238 31.7335 15.5127C31.1453 16.1017 30.6785 16.8011 30.3599 17.5711C30.0414 18.341 29.8774 19.1664 29.8774 20H24.5441C24.5441 18.4669 24.8456 16.9488 25.4317 15.5322C26.0177 14.1157 26.8768 12.8283 27.96 11.7438C29.0432 10.6593 30.3293 9.79881 31.745 9.2117C32.1999 9.02305 32.6653 8.86382 33.1383 8.73457C31.8443 8.2786 30.6555 7.53602 29.6674 6.54671C27.9327 4.80986 26.9587 2.45488 26.9587 1.30465e-06H32.292C32.292 1.04249 32.7057 2.04162 33.4409 2.77778C34.1761 3.51382 35.1725 3.92674 36.2107 3.92674C37.249 3.92674 38.2454 3.51382 38.9805 2.77778Z" fill="black"/>
<path fill-rule="evenodd" clip-rule="evenodd" d="M124.108 17.2222C123.372 17.9584 122.959 18.9575 122.959 20H117.625C117.625 17.5451 118.599 15.1901 120.334 13.4533C121.322 12.464 122.511 11.7214 123.805 11.2654C123.332 11.1362 122.867 10.977 122.412 10.7883C120.996 10.2012 119.71 9.34072 118.627 8.2562L122.4 4.48726C122.988 5.07623 123.687 5.54326 124.455 5.86183C125.223 6.1804 126.046 6.34432 126.877 6.34432C127.709 6.34432 128.532 6.1804 129.3 5.86183C130.068 5.54326 130.766 5.07623 131.355 4.48726C131.943 3.89829 132.41 3.19889 132.728 2.42893C133.047 1.65896 133.211 0.833601 133.211 0L138.544 4.66255e-07C138.544 1.53308 138.242 3.05122 137.656 4.46778C137.07 5.88435 136.211 7.17168 135.128 8.2562C134.045 9.34072 132.759 10.2012 131.343 10.7883C130.888 10.977 130.423 11.1362 129.95 11.2654C131.244 11.7214 132.433 12.464 133.421 13.4533C135.155 15.1901 136.129 17.5451 136.129 20L130.796 20C130.796 18.9575 130.382 17.9584 129.647 17.2222C128.912 16.4862 127.916 16.0733 126.877 16.0733C125.839 16.0733 124.843 16.4862 124.108 17.2222Z" fill="black"/>
<path d="M116.1 3C116.1 4.65686 114.756 6 113.1 6C111.443 6 110.1 4.65686 110.1 3C110.1 1.34315 111.443 4.66255e-07 113.1 4.66255e-07C114.756 4.66255e-07 116.1 1.34315 116.1 3Z" fill="black"/>
</svg>
